<?xml version="1.0" encoding="iso-8859-1"?>
<!-- Generator: Adobe Illustrator 19.0.0, SVG Export Plug-In . SVG Version: 6.00 Build 0)  -->
<svg version="1.1" id="Capa_1" xmlns="http://www.w3.org/2000/svg" xmlns:xlink="http://www.w3.org/1999/xlink" x="0px" y="0px"
	 viewBox="0 0 512 512" style="enable-background:new 0 0 512 512;" xml:space="preserve">
<path style="fill:#7ACBA7;" d="M149.038,208.688c-1.433,0-2.882-0.402-4.173-1.244L65.86,155.868
	c-3.538-2.308-4.535-7.048-2.226-10.586c2.309-3.538,7.046-4.535,10.586-2.226l79.006,51.576c3.538,2.308,4.535,7.048,2.226,10.586
	C153.984,207.465,151.536,208.688,149.038,208.688z"/>
<path id="SVGCleanerId_0" style="fill:#B2DA7B;" d="M341.229,76.235c-3.052-5.177-10.549-5.035-13.404,0.254
	c-6.527,12.095-15.561,33.262-15.11,57.154c0.451,23.891,10.276,44.702,17.255,56.541c3.052,5.177,10.549,5.035,13.404-0.254
	c6.527-12.095,15.561-33.262,15.11-57.154S348.208,88.075,341.229,76.235z"/>
<g>
	<path id="SVGCleanerId_1" style="fill:#B2DA7B;" d="M477.887,168.748c3.467-4.908,0.269-11.703-5.716-12.147
		c-13.688-1.016-36.664-0.611-58.241,9.578c-21.576,10.189-36.51,27.687-44.437,38.911c-3.467,4.908-0.269,11.703,5.716,12.147
		c13.688,1.016,36.664,0.611,58.241-9.578C455.026,197.47,469.96,179.973,477.887,168.748z"/>
</g>
<g>
	<path id="SVGCleanerId_0_1_" style="fill:#B2DA7B;" d="M341.229,76.235c-3.052-5.177-10.549-5.035-13.404,0.254
		c-6.527,12.095-15.561,33.262-15.11,57.154c0.451,23.891,10.276,44.702,17.255,56.541c3.052,5.177,10.549,5.035,13.404-0.254
		c6.527-12.095,15.561-33.262,15.11-57.154S348.208,88.075,341.229,76.235z"/>
</g>
<g>
	<path id="SVGCleanerId_1_1_" style="fill:#B2DA7B;" d="M477.887,168.748c3.467-4.908,0.269-11.703-5.716-12.147
		c-13.688-1.016-36.664-0.611-58.241,9.578c-21.576,10.189-36.51,27.687-44.437,38.911c-3.467,4.908-0.269,11.703,5.716,12.147
		c13.688,1.016,36.664,0.611,58.241-9.578C455.026,197.47,469.96,179.973,477.887,168.748z"/>
</g>
<g>
	<path id="SVGCleanerId_1_2_" style="fill:#B2DA7B;" d="M477.887,168.748c3.467-4.908,0.269-11.703-5.716-12.147
		c-13.688-1.016-36.664-0.611-58.241,9.578c-21.576,10.189-36.51,27.687-44.437,38.911c-3.467,4.908-0.269,11.703,5.716,12.147
		c13.688,1.016,36.664,0.611,58.241-9.578C455.026,197.47,469.96,179.973,477.887,168.748z"/>
</g>
<g>
	<path id="SVGCleanerId_1_3_" style="fill:#B2DA7B;" d="M477.887,168.748c3.467-4.908,0.269-11.703-5.716-12.147
		c-13.688-1.016-36.664-0.611-58.241,9.578c-21.576,10.189-36.51,27.687-44.437,38.911c-3.467,4.908-0.269,11.703,5.716,12.147
		c13.688,1.016,36.664,0.611,58.241-9.578C455.026,197.47,469.96,179.973,477.887,168.748z"/>
</g>
<g>
	<path style="fill:#9BD04C;" d="M373.263,214.785c7.928-11.224,22.86-28.722,44.438-38.911
		c21.576-10.189,44.553-10.595,58.241-9.578c1.04,0.077,1.989,0.356,2.84,0.773c1.823-4.649-1.283-10.073-6.61-10.468
		c-13.688-1.016-36.665-0.611-58.241,9.578s-36.51,27.687-44.438,38.911c-2.865,4.056-1.172,9.389,2.877,11.374
		C372.595,215.89,372.882,215.325,373.263,214.785z"/>
	<path style="fill:#9BD04C;" d="M319.178,140.375c-0.451-23.891,8.583-45.059,15.11-57.154c1.819-3.371,5.523-4.641,8.761-3.786
		c-0.621-1.121-1.233-2.203-1.821-3.2c-3.052-5.177-10.549-5.035-13.404,0.254c-6.527,12.095-15.561,33.262-15.11,57.154
		c0.45,23.891,10.276,44.702,17.255,56.541c1.107,1.877,2.8,3.046,4.643,3.532C327.862,181.529,319.591,162.256,319.178,140.375z"/>
</g>
<path style="fill:#B5D3E3;" d="M429.557,212.987c-6.772-7.172-17.643-11.122-30.611-11.122c-0.253,0-0.506,0.002-0.759,0.005
	c-3.513,0.046-5.539-3.933-3.449-6.762c5.264-7.126,9.076-15.528,9.651-23.904c0.753-10.966-3.968-20.118-13.65-26.467
	c-5.352-3.509-10.912-5.289-16.529-5.289c-9.871,0-19.521,5.58-27.174,15.713c-1.592,2.107-3.05,4.351-4.356,6.68
	c-1.718,3.063-6.162,2.843-7.566-0.377c-2.534-5.811-5.935-11.162-9.929-15.312c-6.281-6.529-13.742-9.979-21.576-9.979
	c-4.631,0-9.356,1.203-14.039,3.576c-10.33,5.226-16.04,13.791-16.514,24.767c-0.372,8.612,2.649,17.636,7.296,25.452
	c1.791,3.012-0.62,6.766-4.098,6.372c-2.189-0.248-4.392-0.377-6.577-0.377c-20.591,0-34.01,11.135-35.017,29.064
	c-0.485,8.729,2.094,16.346,7.458,22.026c6.769,7.169,17.631,11.117,30.588,11.117c0.261,0,0.521-0.002,0.782-0.005
	c3.514-0.048,5.54,3.933,3.449,6.763c-5.265,7.125-9.078,15.525-9.652,23.897c-0.752,10.962,3.968,20.111,13.649,26.46
	c5.353,3.51,10.915,5.29,16.533,5.29c9.871,0,19.521-5.579,27.173-15.709c1.588-2.103,3.044-4.342,4.348-6.667
	c1.718-3.064,6.163-2.842,7.567,0.379c2.531,5.807,5.927,11.154,9.916,15.302c6.283,6.534,13.748,9.987,21.588,9.987
	c4.634,0,9.361-1.204,14.048-3.577c10.329-5.226,16.039-13.792,16.514-24.77c0.372-8.616-2.649-17.644-7.299-25.464
	c-1.793-3.015,0.623-6.772,4.103-6.372c2.2,0.253,4.409,0.384,6.591,0.384c20.584,0,33.997-11.133,35.001-29.057
	C437.5,226.284,434.921,218.668,429.557,212.987z"/>
<path id="SVGCleanerId_2" style="fill:#F7CF69;" d="M347.469,254.439h-23.264c-1.511,0-2.907-0.807-3.662-2.118l-11.632-20.182
	c-0.755-1.311-0.755-2.926,0-4.236l11.632-20.182c0.755-1.311,2.151-2.118,3.662-2.118h23.264c1.511,0,2.907,0.807,3.662,2.118
	l11.632,20.182c0.755,1.311,0.755,2.926,0,4.236l-11.632,20.182C350.376,253.632,348.98,254.439,347.469,254.439z"/>
<g>
	<path id="SVGCleanerId_2_1_" style="fill:#F7CF69;" d="M347.469,254.439h-23.264c-1.511,0-2.907-0.807-3.662-2.118l-11.632-20.182
		c-0.755-1.311-0.755-2.926,0-4.236l11.632-20.182c0.755-1.311,2.151-2.118,3.662-2.118h23.264c1.511,0,2.907,0.807,3.662,2.118
		l11.632,20.182c0.755,1.311,0.755,2.926,0,4.236l-11.632,20.182C350.376,253.632,348.98,254.439,347.469,254.439z"/>
</g>
<path style="fill:#E63950;" d="M318.323,275.841c21.132-21.07,21.132-55.227,0-76.297c-20.841-20.799-55.702-20.774-76.53,0
	l-11.934,11.9c-2.846,2.839-7.462,2.839-10.309,0c0,0-11.746-11.705-11.749-11.708c-20.679-20.606-55.687-20.792-76.531,0
	c-20.338,20.288-20.593,55.499-0.246,76.051c0.082,0.082,88.532,88.259,88.532,88.259c2.846,2.84,7.462,2.84,10.309,0
	L318.323,275.841z"/>
<path style="fill:#CC2E43;" d="M158.611,275.786c-20.347-20.551-20.092-55.762,0.246-76.051
	c6.931-6.914,15.431-11.494,24.447-13.789c-18.02-4.582-38.164-0.048-52.036,13.789c-20.338,20.288-20.593,55.499-0.246,76.051
	c0.082,0.083,88.532,88.259,88.532,88.259c2.846,2.84,7.462,2.84,10.309,0l8.639-8.614
	C216.253,333.249,158.677,275.853,158.611,275.786z"/>
<path style="fill:#EC5569;" d="M398.052,324.596c19.846-19.788,19.846-51.867,0-71.655c-19.573-19.533-52.312-19.51-71.874,0
	l-11.208,11.176c-2.673,2.667-7.008,2.667-9.681,0c0,0-11.031-10.993-11.034-10.995c-19.42-19.352-52.299-19.527-71.873,0
	c-19.101,19.054-19.34,52.122-0.231,71.423c0.077,0.077,83.146,82.889,83.146,82.889c2.673,2.667,7.008,2.667,9.681,0
	L398.052,324.596z"/>
<path style="fill:#DCE6EB;" d="M27.443,154.827c0.438,0.769,1.187,1.312,2.054,1.489l66.453,13.607
	c2.73,0.559,4.736-2.51,3.128-4.786l-39.21-55.514c-0.514-0.727-1.317-1.196-2.203-1.285l-54.298-5.479
	c-2.47-0.249-4.19,2.396-2.96,4.552L27.443,154.827z"/>
<path style="fill:#B5D3E3;" d="M58.1,154.834l-27.323-47.92c-0.49-0.859-1.365-1.428-2.349-1.527L3.37,102.859
	c-2.472-0.249-4.193,2.397-2.962,4.555l27.039,47.42c0.436,0.764,1.18,1.304,2.042,1.481l66.505,13.617
	c2.714,0.556,4.708-2.496,3.11-4.758l-0.03-0.043c-0.448-0.635-1.122-1.075-1.884-1.231l-37.048-7.585
	C59.28,156.138,58.536,155.599,58.1,154.834z"/>
<path style="fill:#7ACBA7;" d="M444.592,400.71c-1.431,0-2.877-0.401-4.166-1.24l-104.53-68.039
	c-3.54-2.304-4.542-7.043-2.238-10.584c2.305-3.541,7.045-4.541,10.584-2.238l104.53,68.039c3.54,2.305,4.542,7.043,2.238,10.584
	C449.544,399.484,447.093,400.71,444.592,400.71z"/>
<path id="SVGCleanerId_3" style="fill:#DCE6EB;" d="M436.045,396.621c0.03,0.016,0.027,0.014,0.058,0.034l64.077,41.672
	c1.279,0.831,2.728,1.237,4.167,1.237c2.026,0,4.034-0.803,5.52-2.351c2.544-2.648,2.847-6.73,0.722-9.724L458.021,353.4
	c-1.765-2.486-4.834-3.686-7.819-3.058c-2.982,0.629-5.307,2.97-5.915,5.956l-7.183,35.234
	C436.712,393.757,436.357,395.412,436.045,396.621"/>
<g>
	<path id="SVGCleanerId_3_1_" style="fill:#DCE6EB;" d="M436.045,396.621c0.03,0.016,0.027,0.014,0.058,0.034l64.077,41.672
		c1.279,0.831,2.728,1.237,4.167,1.237c2.026,0,4.034-0.803,5.52-2.351c2.544-2.648,2.847-6.73,0.722-9.724L458.021,353.4
		c-1.765-2.486-4.834-3.686-7.819-3.058c-2.982,0.629-5.307,2.97-5.915,5.956l-7.183,35.234
		C436.712,393.757,436.357,395.412,436.045,396.621"/>
</g>
<path style="fill:#B5D3E3;" d="M439.35,380.515l-2.246,11.016c-0.392,2.226-0.747,3.882-1.059,5.09
	c0.03,0.016,0.027,0.014,0.058,0.034l64.077,41.672c1.279,0.831,2.728,1.237,4.167,1.237c2.026,0,4.034-0.803,5.52-2.351
	c1.107-1.152,1.762-2.579,2.005-4.066L439.35,380.515z"/>
<path style="fill:#E63950;" d="M347.207,297.051c-4.089-1.045-8.258,1.427-9.304,5.52l-4.671,18.306l-14.064,12.612
	c-3.145,2.821-3.408,7.657-0.589,10.802c1.511,1.685,3.6,2.542,5.698,2.542c1.818,0,3.643-0.645,5.103-1.954l15.795-14.165
	c0.131-0.118,0.25-0.244,0.371-0.368c0.045-0.046,0.093-0.088,0.137-0.136c0.249-0.268,0.47-0.553,0.673-0.847
	c0.046-0.066,0.089-0.132,0.133-0.199c0.203-0.314,0.384-0.637,0.537-0.972c0.02-0.043,0.036-0.089,0.055-0.133
	c0.158-0.366,0.292-0.74,0.391-1.123c0.002-0.009,0.007-0.017,0.009-0.027l5.246-20.557
	C353.771,302.26,351.3,298.095,347.207,297.051z"/>
<path style="fill:#F7CF69;" d="M95.71,157.384l-7.86,11.828c-1.714,2.58-5.228,3.288-7.807,1.573l0,0
	c-2.58-1.714-3.288-5.228-1.573-7.807l7.86-11.828c1.714-2.58,5.228-3.288,7.807-1.573l0,0
	C96.717,151.291,97.425,154.804,95.71,157.384z"/>
<path style="fill:#F9DB8D;" d="M104.479,163.211l-7.86,11.828c-1.714,2.58-5.228,3.288-7.807,1.573l0,0
	c-2.58-1.714-3.288-5.228-1.573-7.807l7.86-11.828c1.714-2.58,5.228-3.288,7.807-1.573l0,0
	C105.486,157.118,106.194,160.631,104.479,163.211z"/>
<path style="fill:#F7CF69;" d="M113.453,169.174l-7.86,11.828c-1.714,2.58-5.228,3.288-7.807,1.573l0,0
	c-2.58-1.714-3.288-5.228-1.573-7.807l7.86-11.828c1.714-2.58,5.228-3.288,7.807-1.573l0,0
	C114.459,163.081,115.167,166.594,113.453,169.174z"/>
<path style="fill:#F9DB8D;" d="M122.222,175.001l-7.86,11.828c-1.714,2.58-5.228,3.288-7.807,1.573l0,0
	c-2.58-1.714-3.288-5.228-1.573-7.807l7.86-11.828c1.714-2.58,5.228-3.288,7.807-1.573l0,0
	C123.228,168.908,123.936,172.421,122.222,175.001z"/>
<g>
</g>
<g>
</g>
<g>
</g>
<g>
</g>
<g>
</g>
<g>
</g>
<g>
</g>
<g>
</g>
<g>
</g>
<g>
</g>
<g>
</g>
<g>
</g>
<g>
</g>
<g>
</g>
<g>
</g>
</svg>
