<?xml version="1.0" encoding="iso-8859-1"?>
<!-- Generator: Adobe Illustrator 19.0.0, SVG Export Plug-In . SVG Version: 6.00 Build 0)  -->
<svg version="1.1" id="Capa_1" xmlns="http://www.w3.org/2000/svg" xmlns:xlink="http://www.w3.org/1999/xlink" x="0px" y="0px"
	 viewBox="0 0 512.001 512.001" style="enable-background:new 0 0 512.001 512.001;" xml:space="preserve">
<path style="fill:#F7EEEF;" d="M234.787,56.713c53.972-8.157,86.855-64.825,158.166-45.137
	c80.811,22.311,4.045,188.495,69.315,246.606s81.201,125.254-44.879,149.153S259.471,568.793,186.63,468.21
	S30.985,387.96,9.438,341.362c-35.215-76.156,38.514-108.852,51.639-148.535c10.839-32.77-66.055-62.997-4.136-125.625
	C102.437,21.184,143.198,70.555,234.787,56.713z"/>
<path style="fill:#F5E0BC;" d="M227.932,459.931C155.09,359.347,72.287,379.68,50.74,333.083
	c-35.216-76.157,38.514-108.853,51.639-148.536c10.839-32.769-66.055-62.997-4.136-125.625c4.693-4.747,9.336-8.465,13.989-11.355
	C92.243,45.717,74.962,48.973,56.94,67.2c-61.919,62.629,14.975,92.856,4.136,125.626C47.951,232.51-25.778,265.205,9.437,341.362
	c21.547,46.599,104.35,26.265,177.192,126.848c30.934,42.715,54.473,42.478,80.977,26.239
	C255.294,490.521,242.425,479.944,227.932,459.931z"/>
<path style="fill:#F7CF69;" d="M339.924,202.83L339.924,202.83c-18.963-18.963-49.709-18.963-68.672,0l-10.712,10.712
	c-2.554,2.554-6.695,2.554-9.25,0l-10.54-10.54c-18.963-18.963-49.709-18.963-68.672,0l0,0c-18.963,18.963-18.963,49.709,0,68.672
	l79.219,79.219c2.554,2.554,6.695,2.554,9.25,0l79.377-79.391C358.887,252.539,358.887,221.794,339.924,202.83z"/>
<path style="fill:#FFB64C;" d="M203.1,271.674c-18.963-18.963-18.963-49.709,0-68.672l0,0c5.48-5.48,11.947-9.366,18.826-11.679
	c-16.926-5.691-36.363-1.805-49.846,11.679l0,0c-18.963,18.963-18.963,49.709,0,68.672l79.219,79.22c2.554,2.554,6.695,2.554,9.25,0
	l10.885-10.887L203.1,271.674z"/>
<g>
</g>
<g>
</g>
<g>
</g>
<g>
</g>
<g>
</g>
<g>
</g>
<g>
</g>
<g>
</g>
<g>
</g>
<g>
</g>
<g>
</g>
<g>
</g>
<g>
</g>
<g>
</g>
<g>
</g>
</svg>
