<?xml version="1.0" encoding="iso-8859-1"?>
<!-- Generator: Adobe Illustrator 19.0.0, SVG Export Plug-In . SVG Version: 6.00 Build 0)  -->
<svg version="1.1" width = "35px" height = "35px" id="Layer_1" xmlns="http://www.w3.org/2000/svg" xmlns:xlink="http://www.w3.org/1999/xlink" x="0px" y="0px"
	 viewBox="0 0 512 512" style="enable-background:new 0 0 512 512;" xml:space="preserve">
<g>
	<g>
		<path d="M358.634,31.276C352.791,13.198,335.999,0,316,0H196c-19.999,0-36.791,13.198-42.634,31.276
			C84.917,37.758,31,94.883,31,165v30c0,42.845,33.82,70.346,60,75.923V272c2.752,0,5.195,0,7.705,0
			c1.375,0.084,2.655,0.048,3.946,0c11.169,0,20.779,0,33.349,0c8.262,0,15,6.738,15,15v30c0,24.814,20.186,45,45,45
			c24.814,0,45-20.186,45-45v-30c0-8.262,6.738-15,15-15c8.262,0,15,6.738,15,15c0,24.814,20.186,45,45,45c24.814,0,45-20.186,45-45
			c0-8.262,6.738-15,15-15c12.656,0,22.273,0,33.349,0c1.291,0.048,2.571,0.082,3.946,0c2.51,0,4.958,0,7.705,0v-1.077
			c26.18-5.577,60-33.077,60-75.923v-30C481,94.883,427.083,37.758,358.634,31.276z M451,195c0,19.53-12.578,38.024-30,44.237V195
			c0-8.291-6.709-15-15-15H106c-8.291,0-15,6.709-15,15v44.237C73.578,233.024,61,214.53,61,195v-30
			c0-53.828,40.882-97.82,93.137-103.801C160.664,78.007,176.911,90,196,90h120c19.089,0,35.336-11.993,41.863-28.801
			C410.118,67.18,451,111.172,451,165V195z"/>
	</g>
</g>
<g>
	<g>
		<path d="M389.506,302c-6.973,34.189-37.295,60-73.506,60c-19.043,0-36.445-7.148-49.688-18.867
			C255.678,371.639,228.168,392,196,392c-41.367,0-75-33.633-75-75v-15c-10.856,0-19.144,0-30,0v120h330V302
			C409.997,302,402.131,302,389.506,302z"/>
	</g>
</g>
<g>
	<g>
		<path d="M91,452v15c0,24.814,20.186,45,45,45h240c24.814,0,45-20.186,45-45v-15H91z"/>
	</g>
</g>
<g>
</g>
<g>
</g>
<g>
</g>
<g>
</g>
<g>
</g>
<g>
</g>
<g>
</g>
<g>
</g>
<g>
</g>
<g>
</g>
<g>
</g>
<g>
</g>
<g>
</g>
<g>
</g>
<g>
</g>
</svg>
