<?xml version="1.0" encoding="utf-8"?>
<!-- Svg Vector Icons : http://www.onlinewebfonts.com/icon -->
<!DOCTYPE svg PUBLIC "-//W3C//DTD SVG 1.1//EN" "http://www.w3.org/Graphics/SVG/1.1/DTD/svg11.dtd">
<svg version="1.1" xmlns="http://www.w3.org/2000/svg" xmlns:xlink="http://www.w3.org/1999/xlink" width="50px" height="50px" x="0px" y="0px" viewBox="0 0 1000 1000" enable-background="new 0 0 1000 1000" xml:space="preserve">
<metadata> Svg Vector Icons : http://www.onlinewebfonts.com/icon </metadata>
<g><path d="M711.2,218.7H284.4c-10.7,0-19.4,8.7-19.4,19.4V762c0,10.7,8.7,19.4,19.4,19.4h426.9c10.7,0,19.4-8.7,19.4-19.4V238C730.6,227.3,722,218.7,711.2,218.7z M540.6,659H327.2v-29.1h213.4V659z M540.6,509.7H327.2v-29.1h213.4V509.7z M540.6,360.4H327.2v-29.1h213.4V360.4z M696.5,606l-77.6,79.9c-0.1,0.2-0.2,0.3-0.4,0.5c-4,4.2-10.6,4.2-14.7,0l-29.3-30.1c-4.1-4.2-4.1-10.9,0-15.1c4-4.1,10.6-4.1,14.6,0l21.9,22.6l70.7-72.8c4-4.1,10.6-4.1,14.6,0C700.6,595.1,700.6,601.8,696.5,606z M696.5,454.8l-77.6,79.9c-0.1,0.2-0.2,0.3-0.4,0.5c-4,4.2-10.6,4.2-14.7,0L574.6,505c-4.1-4.2-4.1-10.9,0-15.1c4-4.2,10.6-4.2,14.6,0l21.9,22.6l70.7-72.8c4-4.2,10.6-4.2,14.6,0C700.6,443.9,700.6,450.7,696.5,454.8z M696.5,314.4l-77.6,79.9c-0.1,0.2-0.2,0.3-0.4,0.5c-4,4.2-10.6,4.2-14.7,0l-29.3-30.1c-4.1-4.2-4.1-10.9,0-15.1c4-4.1,10.6-4.1,14.6,0l21.9,22.6l70.7-72.8c4-4.1,10.6-4.1,14.6,0C700.6,303.5,700.6,310.2,696.5,314.4z"/><path d="M500,10C229.4,10,10,229.4,10,500c0,270.6,219.4,490,490,490c270.6,0,490-219.4,490-490C990,229.4,770.6,10,500,10z M759.7,762c0,26.8-21.7,48.5-48.5,48.5H284.4c-26.8,0-48.5-21.7-48.5-48.5V238c0-26.8,21.7-48.5,48.5-48.5h426.9c26.8,0,48.5,21.7,48.5,48.5V762z"/></g>
</svg>