<?xml version="1.0" encoding="iso-8859-1"?>
<!-- Generator: Adobe Illustrator 19.0.0, SVG Export Plug-In . SVG Version: 6.00 Build 0)  -->
<svg version="1.1" id="Layer_1" xmlns="http://www.w3.org/2000/svg" xmlns:xlink="http://www.w3.org/1999/xlink" x="0px" y="0px"
	 viewBox="0 0 512 512" style="enable-background:new 0 0 512 512;" xml:space="preserve">
<circle style="fill:#ECE5DD;" cx="256" cy="256" r="256"/>
<path style="fill:#D9CBBD;" d="M256,0c-11.317,0-22.461,0.744-33.391,2.167C348.216,18.53,445.217,125.933,445.217,256
	s-97.002,237.47-222.609,253.833C233.539,511.256,244.683,512,256,512c141.385,0,256-114.616,256-256S397.385,0,256,0z"/>
<circle style="fill:#FFFFFF;" cx="256" cy="256" r="200.17"/>
<path style="fill:#1D81CE;" d="M255.973,305.678c-27.393,0-49.678-22.285-49.678-49.678s22.285-49.678,49.678-49.678
	s49.678,22.285,49.678,49.678S283.366,305.678,255.973,305.678z"/>
<path style="fill:#40A459;" d="M255.973,336.658c-42.545,0-77.478-33.116-80.431-74.923L99.491,131.334
	C72.168,165.56,55.808,208.903,55.808,256c0,103.299,78.653,188.565,179.217,199.071l72.746-137.306
	C293.747,329.544,275.679,336.658,255.973,336.658z"/>
<path style="fill:#CD2900;" d="M175.315,256c0-44.475,36.183-80.658,80.658-80.658c7.916,0,15.561,1.165,22.795,3.301H440.58
	C410.268,106.571,338.937,55.835,255.973,55.835c-63.699,0-120.541,29.91-157.226,76.422l76.804,129.607
	C175.411,259.925,175.315,257.973,175.315,256z"/>
<path style="fill:#FFCE00;" d="M440.11,177.536l-160.544,1.107l0.61,0.414c32.686,10.303,56.455,40.898,56.455,76.942
	c0,24.84-11.293,47.085-29.007,61.892l-73.784,137.043c7.269,0.804,14.652,1.23,22.133,1.23
	c110.373,0,200.165-89.793,200.165-200.165C456.139,228.166,450.421,201.643,440.11,177.536z"/>
<g>
</g>
<g>
</g>
<g>
</g>
<g>
</g>
<g>
</g>
<g>
</g>
<g>
</g>
<g>
</g>
<g>
</g>
<g>
</g>
<g>
</g>
<g>
</g>
<g>
</g>
<g>
</g>
<g>
</g>
</svg>
