<svg height="511pt" viewBox="-52 0 511 511.99887" width="511pt" xmlns="http://www.w3.org/2000/svg"><path d="m394.433594 132.4375-36.097656-108.195312c-3.289063-9.855469-10.484376-17.695313-19.746094-21.507813-.65625-.269531-1.316406-.519531-2-.757813-19.117188-6.59375-40.175782 3.847657-46.945313 23.269532l-23.855469 68.464844c-55.089843-19.480469-106.429687-7.894532-131.234374.300781l-25.789063-73.332031c-1.128906-3.214844-2.601563-5.953126-4.496094-8.375-5.550781-7.085938-14.117187-11.335938-23.503906-11.660157-9.460937-.339843-18.386719 3.355469-24.464844 10.105469-2.554687 2.835938-4.535156 6.261719-5.878906 10.183594l-41.589844 121.195312c-5.308593 11.1875-8.015625 23.050782-8.046875 35.285156l-.285156 112.964844c0 41.234375 13.808594 80.714844 38.882812 111.160156 2.851563 3.464844 5.84375 6.789063 8.957032 9.988282l-.6875 85.320312c-.03125 4.007813 1.539062 7.859375 4.359375 10.707032 2.820312 2.84375 6.664062 4.445312 10.671875 4.445312h282.03125c8.257812 0 14.96875-6.660156 15.03125-14.917969l.695312-90.816406c2.867188-2.894531 5.640625-5.882813 8.292969-8.980469 25.453125-29.699218 38.90625-66.667968 38.90625-106.90625v-100.519531c0-19.914063-4.441406-39.226563-13.207031-57.421875zm-316.226563 303.246094c18.71875 11.769531 39.863281 19.765625 62.269531 23.320312 3.671876.699219 7.429688 1.082032 11.199219 1.179688v4.664062c0 6.027344 1.28125 11.789063 3.59375 17.089844h-77.433593zm124.632813 3.054687c2.109375 2.066407 4.390625 4 6.824218 5.777344 5.070313 3.703125 10.734376 6.648437 16.742188 8.769531v11.5625c0 9.214844-10.226562 17.003906-22.335938 17.003906-12.105468 0-22.335937-7.785156-22.335937-17.003906v-10.695312c4.65625-2.113282 9.046875-4.738282 13.050781-7.867188 2.945313-2.304687 5.640625-4.832031 8.054688-7.546875zm-32.003906-68.785156c-.414063-.3125-1.113282-.84375-.667969-2.167969.445312-1.328125 1.320312-1.328125 1.84375-1.328125h60.109375c.523437 0 1.398437 0 1.84375 1.328125.445312 1.324219-.25 1.851563-.667969 2.167969l-30.054687 22.753906c-.109376.082031-.230469.128907-.351563.183594-.574219-.042969-1.148437-.066406-1.738281-.046875-.085938-.046875-.179688-.074219-.257813-.136719 0 0 0 0-.003906 0zm82.039062 111.984375c2.308594-5.300781 3.59375-11.0625 3.59375-17.089844v-7.828125c4.742188-.253906 10.5-.824219 15.0625-2.09375 21.433594-5.082031 41.183594-13.335937 58.664062-24.410156l-.394531 51.421875zm124.707031-191.558594c0 38.3125-14.96875 72.28125-40.972656 97.214844-1 .730469-1.921875 1.574219-2.710937 2.527344-18.449219 16.757812-42.074219 29.148437-69.597657 35.625-.265625.0625-.527343.132812-.789062.210937-1.972657.578125-7.621094 1.191407-14.199219 1.191407-1.507812 0-2.988281-.09375-4.449219-.257813-.785156-.183594-1.59375-.304687-2.421875-.359375-8-1.425781-15.078125-5.28125-19.945312-10.695312l28.941406-21.914063c11.148438-8.4375 15.476562-22.453125 11.023438-35.707031-4.449219-13.253906-16.359376-21.816406-30.339844-21.816406h-60.109375c-13.980469 0-25.890625 8.5625-30.339844 21.816406s-.125 27.269531 11.023437 35.707031l29.625 22.429687c-5.957031 8.324219-16.769531 13.816407-28.835937 13.816407-2.546875 0-5.085937-.242188-7.539063-.722657-.179687-.035156-.363281-.066406-.542968-.09375-26.90625-4.226562-50.582032-15.824218-69.339844-32.738281-1.300781-2.023437-3.074219-3.710937-5.164062-4.910156-25.28125-25.394531-40.339844-61.105469-40.339844-101.285156l.289062-112.925781c.019532-7.972657 1.84375-15.726563 5.417969-23.050782.273437-.558594.511719-1.132812.710937-1.71875l41.839844-121.921875c.449219-.15625 1.207032-.152343 1.644532.003907l30.855468 87.738281c1.410156 4.011719 4.457032 7.238281 8.382813 8.878906 3.921875 1.640625 8.359375 1.542969 12.207031-.269531.671875-.316406 68.066406-31.359375 136.621094.066406 3.847656 1.765625 8.261718 1.824219 12.15625.164062 3.894531-1.660156 6.90625-4.882812 8.300781-8.882812l29.046875-83.363281c1.308594-3.757813 5.320312-5.929688 8.742188-4.746094.128906.042969.257812.09375.378906.140625 1.140625.46875 2.164062 1.707031 2.667968 3.222656l36.40625 109.128906c.214844.640626.46875 1.261719.769532 1.867188 7.023437 14.308594 10.585937 29.484375 10.585937 45.109375zm0 0"/><path d="m272.132812 306.226562c-8.300781 0-15.03125-6.730468-15.03125-15.03125v-28.617187c0-8.296875 6.730469-15.027344 15.03125-15.027344 8.300782 0 15.03125 6.730469 15.03125 15.027344v28.617187c0 8.300782-6.730468 15.03125-15.03125 15.03125zm0 0"/><path d="m136.011719 306.226562c-8.300781 0-15.03125-6.730468-15.03125-15.03125v-28.617187c0-8.296875 6.730469-15.027344 15.03125-15.027344s15.027343 6.730469 15.027343 15.027344v28.617187c0 8.300782-6.726562 15.03125-15.027343 15.03125zm0 0"/></svg>